<svg xmlns="http://www.w3.org/2000/svg" width="48" height="48" viewBox="0 0 48 48">
  <g id="Group_54" data-name="Group 54" transform="translate(-113 -4643)">
    <circle id="Ellipse_10" data-name="Ellipse 10" cx="24" cy="24" r="24" transform="translate(113 4643)"/>
    <g id="Group_21" data-name="Group 21" transform="translate(1.321 4393.656)">
      <path id="Path_91" data-name="Path 91" d="M146.929,263.344l2.55-3.4a1,1,0,0,0-.8-1.6h-11a1,1,0,0,0-1,1v9c-1.753.005-3.855.01-5.032.008a5,5,0,1,0-7.695.291c-2.033,1.672-2.953,3.823-3.273,7.7,0,1.683,0,3.567,2.168,3.936l.862,4.306c.571,2.284,2.129,3.758,3.97,3.758s3.4-1.474,3.981-3.8l.984-4.919a16.746,16.746,0,0,0,.989-4.448l3.046-.609v12.78a1,1,0,0,0,2,0v-13a.974.974,0,0,0-.03-.152,3.011,3.011,0,0,0,.03-5.683v-.165h10a1,1,0,0,0,.8-1.6Zm-8.25,3v-6h8l-1.8,2.4a1,1,0,0,0,0,1.2l1.8,2.4Zm-11-4a3,3,0,1,1-3,3A3,3,0,0,1,127.679,262.344Zm10,10a1,1,0,0,0-.2.02l-4.9.979a1.023,1.023,0,0,0-.228.049,1,1,0,0,0-.68.923,14.528,14.528,0,0,1-.931,4.674.966.966,0,0,0-.046.159l-.989,4.954c-.341,1.362-1.138,2.242-2.031,2.242s-1.689-.88-2.019-2.2l-1-5a1,1,0,0,0-.981-.8c-1,0-1,0-1-1.917.314-3.763,1.2-5.161,2.628-6.3a1,1,0,0,0,.175-.182c.023-.03.049-.061.072-.092a4.934,4.934,0,0,0,.625.237l.837,1.255-1.334,3.333,2,2.667,2-2.667-1.333-3.333.837-1.255a4.935,4.935,0,0,0,.625-.237l.072.093a1,1,0,0,0,.173.178c.311.251.309.251,7.63.221a1,1,0,0,1,0,2Z" fill="#fff"/>
    </g>
  </g>
</svg>
