<svg xmlns="http://www.w3.org/2000/svg" width="48" height="48" viewBox="0 0 48 48">
  <g id="Group_53" data-name="Group 53" transform="translate(-113 -5011)">
    <circle id="Ellipse_12" data-name="Ellipse 12" cx="24" cy="24" r="24" transform="translate(113 5011)" fill="#115084"/>
    <path id="Path_93" data-name="Path 93" d="M321.525,267.647a5,5,0,1,0-7.456,0c-2.032,1.672-2.952,3.823-3.272,7.7,0,1.683,0,3.567,2.167,3.936l.863,4.306c.571,2.284,2.129,3.758,3.97,3.758s3.4-1.474,3.981-3.8l.852-4.26c2.167-.37,2.167-2.262,2.164-4.019C324.478,271.469,323.558,269.319,321.525,267.647Zm-3.728-6.3a3,3,0,1,1-3,3A3,3,0,0,1,317.8,261.344Zm4,16a1,1,0,0,0-.981.8l-.989,4.954c-.341,1.362-1.137,2.242-2.03,2.242s-1.69-.88-2.02-2.2l-1-5a1,1,0,0,0-.98-.8c-1,0-1,0-1-1.917.313-3.763,1.2-5.161,2.627-6.3a1.006,1.006,0,0,0,.176-.181c.022-.03.048-.061.071-.092a4.993,4.993,0,0,0,.625.237l.837,1.255-1.333,3.333,2,2.667,2-2.667-1.333-3.333.837-1.255a4.918,4.918,0,0,0,.624-.237l.073.093a.963.963,0,0,0,.175.18c1.427,1.141,2.314,2.539,2.624,6.219C322.8,277.344,322.8,277.344,321.8,277.344Z" transform="translate(-180.679 4761.656)" fill="#fff"/>
  </g>
</svg>
