<svg xmlns="http://www.w3.org/2000/svg" width="59" height="59" viewBox="0 0 59 59">
  <g id="Group_55" data-name="Group 55" transform="translate(-121 -4076)">
    <circle id="Ellipse_1" data-name="Ellipse 1" cx="29.5" cy="29.5" r="29.5" transform="translate(121 4076)" fill="#115084"/>
    <path id="Path_108" data-name="Path 108" d="M1.64,14.6a3.855,3.855,0,0,0,3.94,3.66c3.04,0,4.9-2.7,4.9-7.14,0-4.08-1.82-6.6-4.78-6.6A4.185,4.185,0,0,0,1.48,8.98a4.047,4.047,0,0,0,4.1,4.34A3.785,3.785,0,0,0,8.76,11.7c-.2,3.22-1.32,5.02-3.14,5.02-1.16,0-1.88-.68-2.22-2.12ZM5.8,6.12A2.614,2.614,0,0,1,8.32,8.94a2.563,2.563,0,0,1-2.5,2.78A2.612,2.612,0,0,1,3.28,8.88,2.608,2.608,0,0,1,5.8,6.12Zm9.72.34h5.56V4.8H14.12l-1.04,7.14h1.64a3.275,3.275,0,0,1,2.52-1.18,2.7,2.7,0,0,1,2.72,2.92,2.721,2.721,0,1,1-5.42.48l-1.72.12a4.246,4.246,0,0,0,4.44,3.98,4.391,4.391,0,0,0,4.5-4.66A4.127,4.127,0,0,0,17.5,9.22a4.63,4.63,0,0,0-2.5.72ZM25.96,4.6c-1.62,0-2.52,1.22-2.52,3.42s.9,3.42,2.52,3.42c1.6,0,2.52-1.22,2.52-3.38C28.48,5.8,27.6,4.6,25.96,4.6Zm0,1.14c.9,0,1.32.72,1.32,2.3,0,1.52-.42,2.26-1.32,2.26s-1.32-.74-1.32-2.28S25.06,5.74,25.96,5.74Zm6.78-1.08H31.68L26.7,18h1.04Zm.68,6.56c-1.6,0-2.5,1.22-2.5,3.42s.9,3.42,2.52,3.42c1.6,0,2.5-1.22,2.5-3.38C35.94,12.42,35.06,11.22,33.42,11.22Zm0,1.14c.9,0,1.32.72,1.32,2.3,0,1.52-.42,2.26-1.3,2.26-.9,0-1.32-.74-1.32-2.28S32.54,12.36,33.42,12.36Z" transform="translate(132 4095)" fill="#fff"/>
  </g>
</svg>
