<svg xmlns="http://www.w3.org/2000/svg" width="59" height="59" viewBox="0 0 59 59">
  <g id="Group_43" data-name="Group 43" transform="translate(-121 -3795)">
    <g id="Group_57" data-name="Group 57">
      <circle id="Ellipse_3" data-name="Ellipse 3" cx="29.5" cy="29.5" r="29.5" transform="translate(121 3795)" fill="#177dd2"/>
      <path id="Path_110" data-name="Path 110" d="M7.08,14.96V18H8.84V14.96h1.64v-1.5H8.84V4.8H7.3L1.36,13.16v1.8Zm0-1.5H3.04L6.08,9.12c.3-.42.52-.76,1.06-1.6-.04.6-.04.64-.04.84l-.02.48v4.62Zm8.44-7h5.56V4.8H14.12l-1.04,7.14h1.64a3.275,3.275,0,0,1,2.52-1.18,2.7,2.7,0,0,1,2.72,2.92,2.721,2.721,0,1,1-5.42.48l-1.72.12a4.246,4.246,0,0,0,4.44,3.98,4.391,4.391,0,0,0,4.5-4.66A4.127,4.127,0,0,0,17.5,9.22a4.63,4.63,0,0,0-2.5.72ZM25.96,4.6c-1.62,0-2.52,1.22-2.52,3.42s.9,3.42,2.52,3.42c1.6,0,2.52-1.22,2.52-3.38C28.48,5.8,27.6,4.6,25.96,4.6Zm0,1.14c.9,0,1.32.72,1.32,2.3,0,1.52-.42,2.26-1.32,2.26s-1.32-.74-1.32-2.28S25.06,5.74,25.96,5.74Zm6.78-1.08H31.68L26.7,18h1.04Zm.68,6.56c-1.6,0-2.5,1.22-2.5,3.42s.9,3.42,2.52,3.42c1.6,0,2.5-1.22,2.5-3.38C35.94,12.42,35.06,11.22,33.42,11.22Zm0,1.14c.9,0,1.32.72,1.32,2.3,0,1.52-.42,2.26-1.3,2.26-.9,0-1.32-.74-1.32-2.28S32.54,12.36,33.42,12.36Z" transform="translate(132 3814)" fill="#fff"/>
    </g>
  </g>
</svg>
