<svg xmlns="http://www.w3.org/2000/svg" width="59" height="59" viewBox="0 0 59 59">
  <g id="Group_56" data-name="Group 56" transform="translate(-121 -4158)">
    <circle id="Ellipse_2" data-name="Ellipse 2" cx="29.5" cy="29.5" r="29.5" transform="translate(121 4158)" fill="#073357"/>
    <path id="Path_109" data-name="Path 109" d="M10.3,8.2A3.842,3.842,0,0,0,6.38,4.52c-3.04,0-4.9,2.72-4.9,7.16,0,4.06,1.82,6.58,4.78,6.58a4.185,4.185,0,0,0,4.22-4.46,4.042,4.042,0,0,0-4.1-4.32A3.785,3.785,0,0,0,3.2,11.1c.2-3.24,1.32-5.04,3.14-5.04,1.16,0,1.88.7,2.22,2.14ZM6.14,11.08A2.594,2.594,0,0,1,8.68,13.9a2.608,2.608,0,0,1-2.52,2.76,2.608,2.608,0,0,1-2.52-2.8A2.552,2.552,0,0,1,6.14,11.08Zm9.38-4.62h5.56V4.8H14.12l-1.04,7.14h1.64a3.275,3.275,0,0,1,2.52-1.18,2.7,2.7,0,0,1,2.72,2.92,2.721,2.721,0,1,1-5.42.48l-1.72.12a4.246,4.246,0,0,0,4.44,3.98,4.391,4.391,0,0,0,4.5-4.66A4.127,4.127,0,0,0,17.5,9.22a4.63,4.63,0,0,0-2.5.72ZM25.96,4.6c-1.62,0-2.52,1.22-2.52,3.42s.9,3.42,2.52,3.42c1.6,0,2.52-1.22,2.52-3.38C28.48,5.8,27.6,4.6,25.96,4.6Zm0,1.14c.9,0,1.32.72,1.32,2.3,0,1.52-.42,2.26-1.32,2.26s-1.32-.74-1.32-2.28S25.06,5.74,25.96,5.74Zm6.78-1.08H31.68L26.7,18h1.04Zm.68,6.56c-1.6,0-2.5,1.22-2.5,3.42s.9,3.42,2.52,3.42c1.6,0,2.5-1.22,2.5-3.38C35.94,12.42,35.06,11.22,33.42,11.22Zm0,1.14c.9,0,1.32.72,1.32,2.3,0,1.52-.42,2.26-1.3,2.26-.9,0-1.32-.74-1.32-2.28S32.54,12.36,33.42,12.36Z" transform="translate(132 4177)" fill="#fff"/>
  </g>
</svg>
